<!-- Generated by IcoMoon.io -->
<svg version="1.1" xmlns="http://www.w3.org/2000/svg" width="32" height="32" viewBox="0 0 32 32">
<title>sunrise</title>
<path d="M24 24c0-2.209-0.897-4.211-2.343-5.657s-3.448-2.343-5.657-2.343-4.211 0.897-5.657 2.343-2.343 3.448-2.343 5.657c0 0.736 0.597 1.333 1.333 1.333s1.333-0.597 1.333-1.333c0-1.473 0.596-2.804 1.563-3.771s2.297-1.563 3.771-1.563 2.804 0.596 3.771 1.563 1.563 2.297 1.563 3.771c0 0.736 0.597 1.333 1.333 1.333s1.333-0.597 1.333-1.333zM4.684 14.569l1.893 1.893c0.521 0.521 1.365 0.521 1.885 0s0.521-1.365 0-1.885l-1.893-1.893c-0.521-0.521-1.365-0.521-1.885 0s-0.521 1.365 0 1.885zM1.333 25.333h2.667c0.736 0 1.333-0.597 1.333-1.333s-0.597-1.333-1.333-1.333h-2.667c-0.736 0-1.333 0.597-1.333 1.333s0.597 1.333 1.333 1.333zM28 25.333h2.667c0.736 0 1.333-0.597 1.333-1.333s-0.597-1.333-1.333-1.333h-2.667c-0.736 0-1.333 0.597-1.333 1.333s0.597 1.333 1.333 1.333zM25.423 16.463l1.893-1.893c0.521-0.521 0.521-1.365 0-1.885s-1.365-0.521-1.885 0l-1.893 1.893c-0.521 0.521-0.521 1.365 0 1.885s1.365 0.521 1.885 0zM30.667 28h-29.333c-0.736 0-1.333 0.597-1.333 1.333s0.597 1.333 1.333 1.333h29.333c0.736 0 1.333-0.597 1.333-1.333s-0.597-1.333-1.333-1.333zM11.609 8.943l3.057-3.057v6.115c0 0.736 0.597 1.333 1.333 1.333s1.333-0.597 1.333-1.333v-6.115l3.057 3.057c0.521 0.521 1.365 0.521 1.885 0s0.521-1.365 0-1.885l-5.333-5.333c-0.128-0.128-0.275-0.224-0.432-0.289s-0.329-0.101-0.511-0.101c-0.173 0-0.348 0.033-0.511 0.101-0.157 0.065-0.304 0.161-0.432 0.289l-5.333 5.333c-0.521 0.521-0.521 1.365 0 1.885s1.365 0.521 1.885 0z"></path>
</svg>
